# xmcd CD database file
#
# Track frame offsets:
#	150
#	19759
#	38815
#	55458
#	70018
#	94525
#	108051
#	125325
#	141934
#	164623
#	174716
#	193279
#	212708
#	226582
#	237864
#
# Disc length: 3428 seconds
#
# Revision: 1
# Processed by: cddbd v1.5.2PL0 Copyright (c) Steve Scherf et al.
# Submitted via: CDex 1.70beta2
#
DISCID=cb0d620f
DTITLE=Andreas Vollenweider - Midnight Clear (European Edition and Extra)
DYEAR=2006
DGENRE=New Age
TTITLE0=The Holly And The Ivy
TTITLE1=Over The Hills And Over The Vale
TTITLE2=Midnight Clear
TTITLE3=The Coventry Carol
TTITLE4=The Wexford Carol
TTITLE5=Suspended Note
TTITLE6=The Yorkshire Wassail
TTITLE7=What Child Is This
TTITLE8=Carol Of The Drum
TTITLE9=Forgive
TTITLE10=Jesu, Joy Of Man's Desiring
TTITLE11=Child In A Manger
TTITLE12=Hymn To The Secret Heart
TTITLE13=Home
TTITLE14=Home Of Love
EXTD=YEAR: 2006
EXTT0=
EXTT1=
EXTT2=
EXTT3=
EXTT4=
EXTT5=
EXTT6=
EXTT7=
EXTT8=
EXTT9=
EXTT10=
EXTT11=
EXTT12=
EXTT13=
EXTT14=
PLAYORDER=
